<?xml version="1.0" standalone="no"?><!DOCTYPE svg PUBLIC "-//W3C//DTD SVG 1.1//EN" "http://www.w3.org/Graphics/SVG/1.1/DTD/svg11.dtd"><svg t="1780736234382" class="icon" viewBox="0 0 1024 1024" version="1.1" xmlns="http://www.w3.org/2000/svg" p-id="29750" width="64" height="64" xmlns:xlink="http://www.w3.org/1999/xlink"><path d="M692.992 480.768v111.104l191.488 6.144s-21.76 144.384-203.776 142.08c0 0-149.248-2.048-179.2-135.936 0 0-68.864-235.008 185.344-271.872V215.296s-182.528-5.12-290.304 179.2c0 0-66.304 154.624 18.432 308.736C489.984 839.68 644.096 857.6 686.592 857.6c42.752 0 328.192 3.84 327.424-376.832H692.992z" fill="#F23A3C" p-id="29751"></path><path d="M710.912 350.464v41.984c2.56-4.608 5.888-8.192 10.24-10.752 4.096-2.304 8.448-3.328 13.312-3.328 8.448 0 15.104 2.304 19.712 7.424 4.608 4.864 6.912 12.288 6.912 21.504v46.336h-11.264v-44.544c0-6.912-1.792-12.032-4.864-15.872-3.328-3.584-8.192-5.632-14.08-5.632-5.632 0-10.24 2.304-14.08 6.912-3.84 4.608-5.632 10.496-5.632 17.152v41.984h-11.264v-103.424h11.008zM844.032 390.4c5.376 7.168 8.192 17.152 8.448 29.952h-57.856c0.512 8.192 2.816 14.592 6.656 19.2 4.096 4.608 9.472 6.912 16.384 6.912 5.888 0 11.008-1.536 14.592-4.608 3.072-2.56 5.632-6.4 7.424-11.52h11.264c-1.792 7.168-4.864 12.8-9.984 17.408-6.144 5.376-13.824 8.192-23.552 8.192-10.496 0-18.944-3.584-25.344-10.496-6.656-7.168-9.728-16.384-9.728-28.416 0-10.752 3.072-19.968 9.216-27.136 6.144-7.68 14.592-11.52 25.344-11.52 12.288 0 21.248 4.096 27.136 12.032z m-42.24 3.84c-4.096 4.352-6.144 9.984-6.912 17.152h45.824c-1.536-15.872-9.216-23.552-23.04-23.552-6.656 0-11.776 2.304-15.872 6.4zM888.064 350.464v103.424h-11.264v-103.424h11.264zM925.952 350.464v103.424h-11.264v-103.424h11.264zM1009.408 389.888c6.144 7.168 9.472 16.384 9.472 27.392 0 11.008-3.072 19.968-9.216 27.136-6.656 7.68-15.36 11.52-26.368 11.52-11.008 0-19.712-3.84-26.368-11.52-6.144-7.168-9.472-16.128-9.472-27.136s3.072-20.224 9.472-27.392c6.656-7.68 15.104-11.264 26.368-11.264 10.752-0.256 19.712 3.584 26.112 11.264zM965.12 396.8c-4.096 5.376-5.888 12.032-5.888 20.224s1.792 14.848 5.888 20.224c4.352 5.888 10.496 8.96 18.176 8.96s13.824-3.072 18.432-8.96c3.84-5.376 5.888-12.288 5.888-20.224 0-8.192-2.048-14.848-5.888-20.224-4.608-5.888-10.752-8.96-18.432-8.96-7.936 0-14.08 3.072-18.176 8.96z" fill="#3E81C6" p-id="29752"></path><path d="M235.52 793.856c-56.832 0-111.872-23.552-158.976-67.84l-0.256-0.256c-19.712-17.152-57.344-69.632-62.72-148.992l111.872 5.888c3.84 20.992 23.04 96.512 106.496 96.512h3.328c63.744-1.536 102.912-37.376 110.08-100.864v-0.768c1.792-14.336 5.632-87.296-82.944-109.312l-0.512-0.256-189.184-6.144L123.648 147.2h353.024v123.648H230.144l-7.168 86.784 7.168-0.256h5.632c23.04 0 102.656 4.096 158.464 57.344 31.744 30.208 51.712 79.872 54.784 136.96 3.328 58.368-12.288 115.2-42.496 156.416-39.424 52.736-104.96 85.76-171.008 85.76z" fill="#0471BD" opacity=".902" p-id="29753"></path><path d="M470.528 153.6v111.104H224.512l-1.024 11.264-6.144 74.24-1.28 14.08 14.336-0.768h5.12c22.528 0 99.84 4.096 154.112 55.552 30.208 28.672 49.92 78.336 52.992 132.608 3.072 56.832-11.776 112.384-41.216 152.32-18.432 25.088-43.008 45.824-71.424 60.672-29.44 15.104-61.952 23.296-94.208 23.296-55.296 0-108.8-22.784-154.624-66.304l-0.256-0.256-0.256-0.256c-0.768-0.512-51.712-45.312-60.16-137.984l100.096 5.12c2.048 10.24 6.656 26.368 15.872 42.496 14.08 24.832 42.24 54.272 95.744 54.272h3.584c67.328-1.536 108.544-39.424 116.224-106.496v-0.768c1.024-8.96 2.304-32-8.704-56.32-9.472-20.736-30.72-47.872-78.592-59.648l-1.28-0.256h-1.28l-181.76-5.888 48.64-302.08h341.504m12.288-12.544H118.528L66.048 467.712l195.328 6.4c81.664 20.224 80.128 86.528 78.08 102.656-1.792 16.128-9.472 93.952-104.192 96.256h-3.328c-91.904 0-101.12-96.256-101.12-96.256l-123.904-6.4c4.608 108.288 65.024 160.256 65.024 160.256C124.416 779.52 181.76 800 235.52 800c71.424 0 136.704-36.096 175.616-88.832 66.304-90.112 54.528-237.056-13.056-301.312-57.856-55.04-140.032-58.88-162.56-58.88h-5.888l6.144-74.24h247.04v-135.68z" fill="#FFFFF7" opacity=".902" p-id="29754"></path></svg>